<svg width="48" height="46" viewBox="0 0 48 46" fill="none" xmlns="http://www.w3.org/2000/svg">
<path d="M0 16.9515L7.24892 15.5405L8.34628 22.3572L7.65463 22.4739C4.04239 23.0851 0.623222 20.6182 0 16.9515Z" fill="#1971D8"/>
<path d="M32.3681 23.2441C32.4341 21.3412 31.3734 20.2605 26.5954 20.099V12.8998C28.619 12.9842 31.2195 13.2898 33.9079 13.6848L34.3282 11.0738C34.9515 7.20342 38.4953 4.54033 42.3201 5.06947L40.7511 14.8176C44.8399 15.5579 48 16.2286 48 16.2286C47.3768 19.8953 43.9576 22.3622 40.3478 21.7511L39.6562 21.6343L38.4659 29.0174L31.5983 27.5617C31.718 26.8387 32.285 24.4191 32.3706 23.2441H32.3681Z" fill="#4AC7EB"/>
<path d="M16.1483 11.0714L16.5833 13.7717C19.2839 13.3643 21.9357 13.0364 24.0424 12.9196V20.0966C16.5955 20.3599 18.1914 23.1969 18.8831 27.5741C19.5283 31.6631 21.7279 35.074 25.24 35.074C27.9992 35.074 29.9276 32.9649 30.9565 30.0807L38.0783 31.5886C38.049 31.7203 38.0197 31.8544 37.9879 31.9836L37.8535 32.4655C36.2258 37.9805 31.196 42 25.24 42C19.2839 42 14.3544 37.9656 12.7413 32.4954C12.3503 31.1539 12.2354 30.3912 12.1132 29.6211C11.991 28.851 8.15635 5.06701 8.15635 5.06701C11.9812 4.53787 15.5226 7.19847 16.1483 11.0714Z" fill="#1971D8"/>
</svg>
