<svg width="24" height="24" viewBox="0 0 24 24" fill="none" xmlns="http://www.w3.org/2000/svg">
<mask id="mask0_2292_16709" style="mask-type:alpha" maskUnits="userSpaceOnUse" x="0" y="0" width="24" height="24">
<path d="M0 0H24V24H0V0Z" fill="#D9D9D9"/>
</mask>
<g mask="url(#mask0_2292_16709)">
<path d="M17.9955 7.88168L17.4452 7.37226C17.6848 7.11299 17.9726 6.69643 18.0916 6.0818C18.1888 5.57991 18.179 4.9023 17.8892 4.01306C16.671 4.48263 16.0374 5.47728 15.9538 6.05515L14.4699 5.84041C14.6574 4.54481 15.9217 2.91425 17.9959 2.40949L18.1986 2.36506L18.7967 2.2436L19.037 2.80365C19.6508 4.23185 19.7488 5.41271 19.5642 6.36685C19.38 7.31806 18.9275 7.97865 18.5467 8.39071L17.9955 7.88168Z" fill="#3D4041"/>
<path d="M6.00448 7.88168L6.55478 7.37226C6.31521 7.11299 6.02738 6.69643 5.90836 6.0818C5.8112 5.57991 5.82097 4.9023 6.1108 4.01306C7.32896 4.48263 7.96259 5.47728 8.04621 6.05515L9.53011 5.84041C9.34263 4.54481 8.07834 2.91425 6.00406 2.40949L5.80145 2.36506L5.20332 2.2436L4.96301 2.80365C4.34916 4.23185 4.25115 5.41271 4.43585 6.36685C4.62003 7.31806 5.07247 7.97865 5.4533 8.39071L6.00448 7.88168Z" fill="#3D4041"/>
<path d="M11.1273 14.688C11.2317 14.9312 11.4835 15.2226 11.9485 15.2124L11.97 16.2124C10.9684 16.2343 10.4167 15.5654 10.2093 15.0825L11.1273 14.688Z" fill="#3D4041"/>
<path d="M12.7206 14.688C12.6161 14.9312 12.3643 15.2226 11.8993 15.2124L11.8778 16.2124C12.8795 16.2343 13.4311 15.5654 13.6385 15.0825L12.7206 14.688Z" fill="#3D4041"/>
<path d="M8.12273 11.8403H9.67745V13.3668H8.29136L8.12273 11.8403Z" fill="#3D4041"/>
<path d="M15.7057 11.8403H14.151V13.3668H15.5371L15.7057 11.8403Z" fill="#3D4041"/>
<path d="M11.4401 15.2334H12.4078V17.8223H11.4401V15.2334Z" fill="#3D4041"/>
<path d="M18.1477 10.1821H16.6477V13.6499C16.6478 13.7983 16.6921 13.9436 16.7747 14.0669C17.1858 14.6814 17.3022 15.5049 17.0276 16.2485C16.7784 16.9231 16.1804 17.5982 15.0364 17.9702L14.8001 18.0405L14.7278 18.064C14.564 18.1268 14.426 18.2451 14.3401 18.3999C13.3909 20.1097 12.2553 20.2695 12.0422 20.2485C12.0174 20.246 11.992 20.2446 11.9671 20.2446H11.9075C11.3715 20.2446 10.8689 19.9893 10.428 19.5972C9.98689 19.2048 9.67046 18.7288 9.52467 18.4331L9.48561 18.3628C9.38585 18.2052 9.22995 18.0899 9.04811 18.0405C7.7404 17.6859 7.10345 16.994 6.84987 16.3003C6.58654 15.5796 6.69194 14.7355 7.10084 14.0229C7.16598 13.9094 7.20039 13.7808 7.20045 13.6499V10.1821H5.70045V13.4595C5.18237 14.467 5.03029 15.6906 5.44166 16.8159C5.86034 17.9608 6.82438 18.9009 8.34401 19.394C8.58608 19.8019 8.95327 20.2926 9.4319 20.7183C10.0359 21.2554 10.8782 21.7446 11.9075 21.7446H11.9671V21.7437C12.8569 21.7958 14.3549 21.2525 15.4905 19.3989C17.0276 18.9011 18.0079 17.9238 18.4348 16.7681C18.8505 15.6427 18.7156 14.4116 18.1477 13.4351V10.1821Z" fill="#3D4041"/>
<path d="M8.90361 9.40341C9.17082 9.57907 9.48574 9.68076 9.82646 9.68076V11.1808C9.18105 11.1808 8.5812 10.9872 8.07938 10.6573C7.68953 10.9831 7.18867 11.1808 6.6409 11.1808V9.68076C6.82043 9.68073 6.98437 9.61717 7.11746 9.50595L7.97196 8.79207L8.90361 9.40341ZM12.8607 9.27743C13.1576 9.53023 13.5361 9.68076 13.9515 9.68076V11.1808C13.164 11.1808 12.444 10.8935 11.888 10.42C11.3321 10.893 10.6135 11.1808 9.82646 11.1808V9.68076C10.2402 9.68072 10.6184 9.53092 10.9163 9.27743L11.888 8.45027L12.8607 9.27743ZM16.6595 9.50693C16.791 9.61678 16.9554 9.68076 17.1371 9.68076V11.1808C16.5888 11.1808 16.0866 10.9836 15.6966 10.6573C15.1951 10.9868 14.5963 11.1807 13.9515 11.1808V9.68076C14.2905 9.6807 14.6051 9.57959 14.8734 9.40341L15.804 8.79207L16.6595 9.50693ZM17.8832 8.93368C17.8831 8.54728 17.5897 8.22972 17.2132 8.19147L17.1371 8.18757C17.1066 8.18757 17.0756 8.18963 17.0443 8.19343L15.9427 8.32722L15.4925 7.31255C15.245 6.75481 14.7087 6.36062 14.0784 6.31351L13.9515 6.30862C13.535 6.30862 13.1567 6.45901 12.8607 6.71098L11.888 7.53814L10.9163 6.71098C10.6563 6.48981 10.3342 6.34751 9.97979 6.31546L9.82646 6.30862C9.14045 6.30862 8.54688 6.7186 8.28349 7.31255L7.83426 8.32624L6.7327 8.19343L6.6409 8.18757C6.25365 8.18757 5.93598 8.48159 5.89773 8.8575L5.89382 8.93368C5.89382 9.34607 6.22851 9.68076 6.6409 9.68076V11.1808C5.40008 11.1808 4.39381 10.1745 4.39381 8.93368C4.3939 7.69291 5.40013 6.68754 6.6409 6.68754C6.73282 6.68754 6.82336 6.69341 6.91238 6.70414C7.40762 5.5874 8.52617 4.80859 9.82646 4.80859C10.6134 4.80863 11.3322 5.09555 11.888 5.56837C12.444 5.09507 13.1641 4.80859 13.9515 4.80859C15.2514 4.80871 16.3683 5.58778 16.8636 6.70414C16.9532 6.69328 17.0446 6.68754 17.1371 6.68754C18.3777 6.68769 19.3831 7.69301 19.3832 8.93368C19.3832 10.1744 18.3777 11.1806 17.1371 11.1808V9.68076C17.5487 9.68061 17.8832 9.34657 17.8832 8.93368Z" fill="#3D4041"/>
</g>
</svg>
