<svg width="24" height="24" viewBox="0 0 24 24" fill="none" xmlns="http://www.w3.org/2000/svg">
<mask id="mask0_2292_16715" style="mask-type:alpha" maskUnits="userSpaceOnUse" x="0" y="0" width="24" height="24">
<path d="M0 0H24V24H0V0Z" fill="#D9D9D9"/>
</mask>
<g mask="url(#mask0_2292_16715)">
<path d="M11.1922 3.5442L15.5819 7.93393L7.78575 15.7301L3.39603 11.3403L11.1922 3.5442ZM7.78575 13.6087L13.4606 7.93393L11.1922 5.66552L5.51735 11.3403L7.78575 13.6087Z" fill="#3D4041"/>
<path d="M3.81094 10.2191L8.90708 15.3152L6.97773 17.2446L1.88159 12.1484L3.81094 10.2191ZM6.97842 15.5479L7.21044 15.3159L3.81094 11.9164L3.57892 12.1484L6.97842 15.5479Z" fill="#3D4041"/>
<path d="M12 2.03012L17.0962 7.12626L15.1668 9.05561L10.0707 3.95947L12 2.03012ZM15.1675 7.35897L15.3995 7.12695L12 3.72745L11.768 3.95947L15.1675 7.35897Z" fill="#3D4041"/>
<path d="M18.704 19.0845L18.936 18.8525L11.7261 11.6425L11.4941 11.8746L18.704 19.0845ZM19.9262 18.1454L19.9953 18.2214C20.2942 18.5879 20.2941 19.1171 19.9953 19.4837L19.9263 19.5596L19.4112 20.0748L19.3352 20.1438C18.9687 20.4426 18.4394 20.4427 18.0729 20.1438L17.997 20.0747L10.5039 12.5816C10.1378 12.2156 10.1146 11.6361 10.4348 11.2434L10.5038 11.1674L11.019 10.6523L11.0949 10.5833C11.4877 10.2632 12.0671 10.2863 12.4332 10.6523L19.9262 18.1454Z" fill="#3D4041"/>
</g>
</svg>
