<svg width="24" height="24" viewBox="0 0 24 24" fill="none" xmlns="http://www.w3.org/2000/svg">
<mask id="mask0_2292_16705" style="mask-type:alpha" maskUnits="userSpaceOnUse" x="0" y="0" width="24" height="24">
<path d="M0 0H24V24H0V0Z" fill="#D9D9D9"/>
</mask>
<g mask="url(#mask0_2292_16705)">
<path d="M19.4234 3.56105C19.5786 3.46644 19.7687 3.44274 19.9443 3.4984C20.1449 3.56203 20.3012 3.72103 20.3606 3.92291C20.4882 4.3567 20.4278 4.8372 20.2922 5.2739C20.1529 5.72211 19.9149 6.18856 19.6064 6.63067C18.9923 7.51054 18.0499 8.365 16.9027 8.80924C16.5767 8.93548 16.2097 8.7734 16.0834 8.44738C15.9572 8.12141 16.1193 7.75431 16.4453 7.62805C17.313 7.29199 18.0677 6.62258 18.5678 5.90613C18.7073 5.70625 18.821 5.50701 18.9123 5.31841C17.8155 5.79562 16.5363 6.02511 15.4166 6.14352C14.6088 6.22893 13.8477 6.26026 13.2405 6.27623C12.6027 6.29299 12.1997 6.29305 12.0156 6.31167C11.6677 6.34696 11.3568 6.09323 11.3215 5.74539C11.2865 5.39784 11.5395 5.08765 11.887 5.05217C12.1335 5.02717 12.6461 5.02572 13.2075 5.01096C13.7999 4.99538 14.5231 4.96518 15.283 4.88484C16.8394 4.72027 18.4123 4.35782 19.3591 3.60638L19.4234 3.56105Z" fill="#3D4041"/>
<path d="M16.077 12.9665L15.9777 12.341C16.2714 12.2945 17.0557 12.0464 17.8385 11.523C18.4748 11.0973 19.0626 10.5218 19.4013 9.77578C18.981 9.63461 18.6335 9.61312 18.3392 9.65496C17.9259 9.71374 17.5522 9.90435 17.1784 10.1834L16.4208 9.16863C16.8931 8.81611 17.4641 8.5007 18.1607 8.40156C18.865 8.30143 19.6332 8.43193 20.4823 8.86067L20.9422 9.0927L20.8088 9.58951C20.4341 10.9885 19.4699 11.9555 18.5421 12.576C17.6215 13.1917 16.6664 13.5139 16.1756 13.5917L16.077 12.9665Z" fill="#3D4041"/>
<path d="M4.47918 3.56105C4.32399 3.46644 4.1339 3.44274 3.95824 3.4984C3.75765 3.56203 3.6014 3.72103 3.54198 3.92291C3.41438 4.3567 3.47476 4.8372 3.61039 5.2739C3.74964 5.72211 3.98763 6.18856 4.29619 6.63067C4.91029 7.51054 5.85269 8.365 6.99983 8.80924C7.32585 8.93548 7.69291 8.7734 7.81917 8.44738C7.94533 8.12141 7.78325 7.75431 7.45731 7.62805C6.58953 7.29199 5.83489 6.62258 5.33479 5.90613C5.19528 5.70625 5.08153 5.50701 4.99024 5.31841C6.08707 5.79562 7.36627 6.02511 8.48601 6.14352C9.29373 6.22893 10.0549 6.26026 10.6621 6.27623C11.2998 6.29299 11.7029 6.29305 11.887 6.31167C12.2348 6.34696 12.5457 6.09323 12.581 5.74539C12.6161 5.39784 12.3631 5.08765 12.0156 5.05217C11.7691 5.02717 11.2565 5.02572 10.6951 5.01096C10.1026 4.99538 9.37947 4.96518 8.61954 4.88484C7.06312 4.72027 5.49027 4.35782 4.54348 3.60638L4.47918 3.56105Z" fill="#3D4041"/>
<path d="M7.92298 12.9665L8.02233 12.341C7.72862 12.2945 6.94426 12.0464 6.16154 11.523C5.52519 11.0973 4.93738 10.5218 4.59874 9.77578C5.01898 9.63461 5.36648 9.61312 5.66075 9.65496C6.07406 9.71374 6.44778 9.90435 6.8216 10.1834L7.57916 9.16863C7.10692 8.81611 6.53593 8.5007 5.83926 8.40156C5.13499 8.30143 4.36681 8.43193 3.51774 8.86067L3.0578 9.0927L3.19118 9.58951C3.56587 10.9885 4.53013 11.9555 5.45786 12.576C6.3785 13.1917 7.33357 13.5139 7.82442 13.5917L7.92298 12.9665Z" fill="#3D4041"/>
<path d="M12.003 6.37742C10.7908 6.37742 9.8215 6.91258 9.04714 7.58005C8.37819 8.15666 7.92399 8.75411 7.55107 9.20882L8.3737 12.6749L9.36613 16.3792L9.38756 16.46V18.6666C9.45346 18.7218 9.57406 18.8026 9.76838 18.8875C10.22 19.0848 10.9659 19.265 12.003 19.265V20.5311C10.8295 20.5311 9.90442 20.3289 9.26145 20.0481C8.94393 19.9094 8.66869 19.7398 8.46849 19.5428C8.31387 19.3907 8.07444 19.0885 8.12147 18.7004V16.6265L7.14635 12.9849L7.14387 12.9758L7.1414 12.9675L6.24706 9.19316L6.1704 8.87252L6.38966 8.62606C6.67276 8.30795 7.33792 7.38276 8.22121 6.62141C9.1345 5.83424 10.3858 5.11133 12.003 5.11133V6.37742Z" fill="#3D4041"/>
<path d="M13.9303 16.9746C13.4473 16.9746 13.0445 17.1374 12.7705 17.4543C12.5078 17.7585 12.4178 18.1418 12.4177 18.4863H13.4308C13.4308 18.3032 13.4796 18.1837 13.5371 18.1171C13.5835 18.0633 13.6831 17.9868 13.9303 17.9868V16.9746Z" fill="#3D4041"/>
<path d="M10.0939 16.9746C10.5769 16.9746 10.9797 17.1374 11.2537 17.4543C11.5164 17.7585 11.6064 18.1418 11.6064 18.4863H10.5934C10.5934 18.3032 10.5446 18.1837 10.4871 18.1171C10.4407 18.0633 10.3411 17.9868 10.0939 17.9868V16.9746Z" fill="#3D4041"/>
<path d="M12.0005 6.37742C13.2127 6.37742 14.182 6.91258 14.9563 7.58005C15.6253 8.15666 16.0795 8.75411 16.4524 9.20882L15.6298 12.6749L14.6374 16.3792L14.6159 16.46V18.6666C14.55 18.7218 14.4294 18.8026 14.2351 18.8875C13.7835 19.0848 13.0376 19.265 12.0005 19.265V20.5311C13.174 20.5311 14.0991 20.3289 14.742 20.0481C15.0595 19.9094 15.3348 19.7398 15.535 19.5428C15.6896 19.3907 15.929 19.0885 15.882 18.7004V16.6265L16.8571 12.9849L16.8596 12.9758L16.8621 12.9675L17.7564 9.19316L17.8331 8.87252L17.6138 8.62606C17.3307 8.30795 16.6656 7.38276 15.7823 6.62141C14.869 5.83424 13.6177 5.11133 12.0005 5.11133V6.37742Z" fill="#3D4041"/>
<path d="M8.62082 10.0181H10.0803V11.4775H8.92613L8.62082 10.0181Z" fill="#3D4041"/>
<path d="M15.2861 10.0181H13.8267V11.4775H14.9808L15.2861 10.0181Z" fill="#3D4041"/>
</g>
</svg>
