<svg width="24" height="24" viewBox="0 0 24 24" fill="none" xmlns="http://www.w3.org/2000/svg">
<mask id="mask0_2292_16713" style="mask-type:alpha" maskUnits="userSpaceOnUse" x="0" y="0" width="24" height="24">
<path d="M0 0H24V24H0V0Z" fill="#D9D9D9"/>
</mask>
<g mask="url(#mask0_2292_16713)">
<path d="M3.5 8.9361C3.5 6.44728 5.61766 4.42935 8.22949 4.42935C9.38704 4.42944 10.4455 4.82512 11.2676 5.48276L11.75 5.86801L12.2324 5.48276C13.0545 4.82512 14.113 4.42944 15.2705 4.42935C17.8823 4.42935 20 6.44728 20 8.9361C19.9999 10.1008 19.7611 11.1998 19 12L20 13C21.0013 11.9472 21.4999 10.4692 21.5 8.9361C21.5 5.65787 18.7108 3 15.2705 3C13.9645 3.00007 12.7516 3.3844 11.75 4.03945C10.7484 3.3844 9.53548 3.00007 8.22949 3C4.78924 3 2 5.65787 2 8.9361C2.00009 10.4692 2.61099 11.868 3.6123 12.9208L4.72363 11.9614C3.96249 11.1612 3.50009 10.1008 3.5 8.9361Z" fill="#3D4041"/>
<path d="M4.03782 14.7976C3.37511 13.9771 3.4205 12.7653 4.17868 11.9991L4.1828 11.995L9.43397 6.77125L9.95827 7.30763L10.4819 7.84472L5.23414 13.065L5.16061 13.1559C5.034 13.3499 5.03385 13.6044 5.1613 13.7991L5.23551 13.8907C5.46106 14.118 5.8263 14.118 6.05184 13.8907L7.1073 14.9566C6.29885 15.7724 4.9885 15.7724 4.18006 14.9566L4.03782 14.7976Z" fill="#3D4041"/>
<path d="M5.91111 16.6892C5.2484 15.8687 5.29379 14.6569 6.05197 13.8907L6.0609 13.8817L8.58273 11.4183L9.10153 11.9603L9.62101 12.5015L7.10743 14.9566L7.0339 15.0475C6.90729 15.2415 6.90714 15.496 7.03459 15.6907L7.1088 15.7823C7.33435 16.0096 7.69959 16.0096 7.92513 15.7823L8.98059 16.8482C8.17214 17.664 6.8618 17.664 6.05335 16.8482L5.91111 16.6892Z" fill="#3D4041"/>
<path d="M7.80145 18.6029C7.20165 17.8877 6.97785 16.7401 7.73618 15.9736L10.3879 13.2959L11.4433 14.3617L8.79232 17.0388L8.76002 17.095C8.75039 17.1257 8.74483 17.17 8.75178 17.2324C8.76243 17.3275 8.80365 17.4451 8.88577 17.5606L8.98197 17.6744C9.12929 17.823 9.29345 17.8913 9.41831 17.9055C9.54132 17.9193 9.59315 17.8816 9.61002 17.8645L10.1371 18.3981L10.6648 18.9311C9.85592 19.7472 8.61784 19.438 7.92652 18.7402L7.80145 18.6029Z" fill="#3D4041"/>
<path d="M14.3125 9.70919C13.5919 10.3196 12.4372 10.5457 11.6677 9.77687L9.0582 7.16734L10.1189 6.10668L12.7277 8.71552L12.7505 8.73278C12.781 8.75162 12.8372 8.77072 12.9349 8.75971C13.0334 8.74857 13.154 8.7059 13.2725 8.62091L13.3899 8.52148C13.5424 8.36889 13.6135 8.19865 13.6282 8.0678C13.6426 7.93864 13.6031 7.88122 13.5826 7.86064L10.9302 5.20829L11.9909 4.14763L14.6439 6.80067L14.7848 6.95949C15.4232 7.77592 15.11 8.9224 14.4506 9.58214L14.3125 9.70919Z" fill="#3D4041"/>
<path d="M10.8533 18.7398C10.6568 18.9386 10.632 19.2469 10.7805 19.4739L10.8547 19.5655C11.0802 19.7929 11.4454 19.7929 11.671 19.5655L19 12L20 13L12.7265 20.6314C11.918 21.4472 10.6077 21.4472 9.79923 20.6314L9.65699 20.4725C8.99435 19.6519 9.0397 18.4401 9.79785 17.6739L12.2606 15.187L13.316 16.2528L10.8533 18.7398Z" fill="#3D4041"/>
</g>
</svg>
