<svg width="24" height="24" viewBox="0 0 24 24" fill="none" xmlns="http://www.w3.org/2000/svg">
<mask id="mask0_2292_16707" style="mask-type:alpha" maskUnits="userSpaceOnUse" x="0" y="0" width="24" height="24">
<path d="M0 0H24V24H0V0Z" fill="#D9D9D9"/>
</mask>
<g mask="url(#mask0_2292_16707)">
<path d="M8.11557 12.6235H9.72409V10.9912H8.45206L8.11557 12.6235Z" fill="#3D4041"/>
<path d="M15.9202 12.6235H14.3116V10.9912H15.5837L15.9202 12.6235Z" fill="#3D4041"/>
<path d="M10.3321 15.5806L10.3321 15.2582H13.6848L13.6848 15.5806C13.6848 15.9975 13.2499 16.3584 12.0084 16.3584C10.6519 16.3584 10.3256 15.8399 10.3321 15.5806Z" fill="#3D4041"/>
<path d="M12.608 16.2119V18.7559H11.4088V16.2119H12.608Z" fill="#3D4041"/>
<path d="M10.6173 19.2114C10.6727 19.5067 11.0324 20.2504 12.1359 20.2505V21.7505C10.1248 21.7504 9.29348 20.2923 9.1427 19.4868L10.6173 19.2114Z" fill="#3D4041"/>
<path d="M13.5743 19.2114C13.5189 19.5067 13.1592 20.2504 12.0558 20.2505V21.7505C14.0669 21.7504 14.8981 20.2923 15.0489 19.4868L13.5743 19.2114Z" fill="#3D4041"/>
<path d="M9.89531 7.31348L8.53496 7.94434L6.94121 4.50781C6.15568 5.8152 5.60832 8.05929 7.33281 10.6621L6.08281 11.4902C3.35979 7.38029 5.23819 3.83203 6.58965 2.54199L7.34746 1.81934L9.89531 7.31348Z" fill="#3D4041"/>
<path d="M14.1047 7.31348L15.465 7.94434L17.0588 4.50781C17.8443 5.8152 18.3917 8.05929 16.6672 10.6621L17.9172 11.4902C20.6402 7.38029 18.7618 3.83203 17.4104 2.54199L16.6525 1.81934L14.1047 7.31348Z" fill="#3D4041"/>
<path d="M14.5908 6.24414C15.7955 6.24414 16.3738 7.08691 16.5351 7.60449L18.1943 11.0283L18.2548 11.1523V11.29C18.2548 13.2759 18.1112 14.6749 17.8193 15.627C17.5707 16.4377 17.1809 17.0132 16.6054 17.2939C16.0691 19.0517 15.1766 19.9111 14.0664 19.9883C13.2721 20.0435 12.5422 19.6719 12.0214 19.2773C11.5007 19.6718 10.7706 20.0435 9.97651 19.9883C8.86643 19.9109 7.97372 19.0516 7.43745 17.2939C6.86219 17.0131 6.47315 16.4374 6.22456 15.627C5.93261 14.6749 5.78905 13.2759 5.78901 11.29V11.1523L5.84858 11.0283L7.50972 7.59863C7.67351 7.08061 8.25192 6.24422 9.4521 6.24414H14.5908ZM9.4521 7.44336C8.89817 7.44344 8.68837 7.82419 8.65132 7.96875L8.63569 8.02832L8.60933 8.08301L6.98921 11.4258C6.99582 13.3048 7.13888 14.517 7.37104 15.2744C7.57647 15.9443 7.816 16.1586 8.00386 16.2354L8.08101 16.2607L8.41987 16.3477L8.50972 16.6865C8.98132 18.4503 9.65343 18.7627 10.0605 18.791C10.5869 18.8274 11.2017 18.458 11.6123 18.0498L12.0214 18.4609L12.4316 18.0498C12.8422 18.458 13.457 18.8276 13.9833 18.791C14.3904 18.7626 15.0616 18.4499 15.5332 16.6865L15.624 16.3477L15.9628 16.2607C16.1588 16.2101 16.4373 16.0392 16.6718 15.2744C16.904 14.517 17.0461 13.3049 17.0527 11.4258L15.4335 8.08301L15.4072 8.02832L15.3925 7.96875C15.3556 7.82429 15.145 7.44336 14.5908 7.44336H9.4521Z" fill="#3D4041"/>
</g>
</svg>
