<svg width="24" height="24" viewBox="0 0 24 24" fill="none" xmlns="http://www.w3.org/2000/svg">
<mask id="mask0_2292_16710" style="mask-type:alpha" maskUnits="userSpaceOnUse" x="0" y="0" width="24" height="24">
<path d="M0 0H24V24H0V0Z" fill="#D9D9D9"/>
</mask>
<g mask="url(#mask0_2292_16710)">
<path d="M12.0397 5.25098V6.75098H9.81123C9.60107 6.75098 9.32319 6.85768 8.85518 7.60547L7.36494 10.1143L8.25655 13.6182L9.3708 17.4932V19.6836C9.44302 19.7328 9.55898 19.7991 9.73116 19.8691C10.2185 20.0674 11.0278 20.25 12.156 20.25V21.75C10.8784 21.75 9.86958 21.5452 9.16573 21.2588C8.81891 21.1177 8.51245 20.943 8.28584 20.7354C8.12408 20.5871 7.81865 20.2454 7.8708 19.7842V17.7041L6.81514 14.0332L6.81221 14.0225L6.80928 14.0107L5.83565 10.1846L5.7585 9.88379L5.91768 9.61719L7.56514 6.83984L7.57295 6.82617C8.09521 5.98725 8.76546 5.25098 9.81123 5.25098H12.0397Z" fill="#3D4041"/>
<path d="M8.33279 10.1953H9.83482V11.6973H8.64701L8.33279 10.1953Z" fill="#3D4041"/>
<path d="M14.0221 17.4941C13.4749 17.4942 13.0162 17.6831 12.7057 18.0498C12.4098 18.3995 12.3112 18.8372 12.3112 19.2275H13.5114C13.5114 19.0231 13.5639 18.8936 13.6217 18.8252C13.6652 18.7739 13.7625 18.6934 14.0221 18.6934V17.4941ZM9.96745 18.6934C10.227 18.6934 10.3244 18.7739 10.3678 18.8252C10.4257 18.8935 10.4792 19.0229 10.4792 19.2275H11.6794C11.6794 18.8372 11.5799 18.3995 11.2839 18.0498C10.9734 17.6831 10.5147 17.4942 9.96745 17.4941V18.6934Z" fill="#3D4041"/>
<path d="M10.5167 5.52246L9.21298 6.26465L8.14951 4.39746C8.02439 4.64517 7.92 4.91763 7.86142 5.20117C7.72634 5.8551 7.82362 6.56952 8.50595 7.25195L7.44541 8.3125C6.35981 7.2268 6.16944 5.97816 6.39267 4.89746C6.60702 3.86023 7.19451 2.98544 7.67392 2.48242L8.37021 1.75293L10.5167 5.52246Z" fill="#3D4041"/>
<path d="M11.9602 5.25098V6.75098H14.1888C14.3989 6.75098 14.6768 6.85768 15.1448 7.60547L16.635 10.1143L15.7434 13.6182L14.6292 17.4932V19.6836C14.557 19.7328 14.441 19.7991 14.2688 19.8691C13.7815 20.0674 12.9721 20.25 11.844 20.25V21.75C13.1215 21.75 14.1304 21.5452 14.8343 21.2588C15.1811 21.1177 15.4875 20.943 15.7141 20.7354C15.8759 20.5871 16.1813 20.2454 16.1292 19.7842V17.7041L17.1848 14.0332L17.1878 14.0225L17.1907 14.0107L18.1643 10.1846L18.2415 9.88379L18.0823 9.61719L16.4348 6.83984L16.427 6.82617C15.9048 5.98725 15.2345 5.25098 14.1888 5.25098H11.9602Z" fill="#3D4041"/>
<path d="M15.6166 10.1953H14.1145V11.6973H15.3023L15.6166 10.1953Z" fill="#3D4041"/>
<path d="M13.4833 5.52246L14.787 6.26465L15.8505 4.39746C15.9756 4.64517 16.08 4.91763 16.1386 5.20117C16.2737 5.8551 16.1764 6.56952 15.494 7.25195L16.5546 8.3125C17.6402 7.2268 17.8306 5.97816 17.6073 4.89746C17.393 3.86023 16.8055 2.98544 16.3261 2.48242L15.6298 1.75293L13.4833 5.52246Z" fill="#3D4041"/>
<path d="M10.0203 5.19238C10.4193 5.33653 11.1088 5.72924 11.7 6.32227C12.055 6.67841 12.4052 7.14024 12.6228 7.69629C12.633 7.67918 12.6458 7.66284 12.656 7.64453C12.8901 7.22725 13.0222 6.67903 12.993 6.21094L14.49 6.11719C14.5383 6.8903 14.3307 7.72468 13.9637 8.37891C13.6167 8.99708 12.9881 9.67773 12.0926 9.67773H11.3172L11.3435 8.90234C11.3629 8.33515 11.0745 7.81926 10.6375 7.38086C10.1961 6.93817 9.69334 6.66855 9.51053 6.60254L10.0203 5.19238Z" fill="#3D4041"/>
</g>
</svg>
