<svg width="24" height="24" viewBox="0 0 24 24" fill="none" xmlns="http://www.w3.org/2000/svg">
<mask id="mask0_2292_16714" style="mask-type:alpha" maskUnits="userSpaceOnUse" x="0" y="0" width="24" height="24">
<path d="M0 0H24V24H0V0Z" fill="#D9D9D9"/>
</mask>
<g mask="url(#mask0_2292_16714)">
<path d="M6.60645 16.4404C6.60639 15.3158 6.3663 14.3573 6.03711 13.7236C5.87297 13.4077 5.7086 13.2132 5.58105 13.1094C5.46498 13.0149 5.40803 13.0155 5.40332 13.0156C5.40184 13.0156 5.34515 13.0121 5.22559 13.1094C5.09803 13.2132 4.93274 13.4076 4.76855 13.7236C4.4394 14.3573 4.20025 15.3159 4.2002 16.4404C4.2002 17.5652 4.43932 18.5245 4.76855 19.1582C4.93274 19.4742 5.09803 19.6686 5.22559 19.7725C5.34507 19.8696 5.40184 19.8662 5.40332 19.8662V21.0664L5.2793 21.0605C4.0916 20.9446 3.13173 19.1685 3.0127 16.9141L3 16.4404C3.0001 13.8861 4.07623 11.8154 5.40332 11.8154L5.52637 11.8213C6.79614 11.9448 7.80556 13.9657 7.80566 16.4404L7.79395 16.9141C7.67082 19.2461 6.64734 21.0661 5.40332 21.0664V19.8662C5.40806 19.8663 5.46503 19.8669 5.58105 19.7725C5.7086 19.6686 5.87294 19.4742 6.03711 19.1582C6.36636 18.5245 6.60645 17.5653 6.60645 16.4404Z" fill="#3D4041"/>
<path d="M20.3997 16.4458C20.3996 15.4062 20.1503 14.4945 19.7786 13.8628C19.3987 13.2171 18.9611 12.9614 18.597 12.9614V11.7622C19.5599 11.7622 20.3239 12.4209 20.8138 13.2534C21.3117 14.0998 21.5998 15.2301 21.5999 16.4458C21.5999 17.6617 21.3118 18.7927 20.8138 19.6392C20.3239 20.4717 19.5599 21.1304 18.597 21.1304V19.9312C18.9611 19.9312 19.3987 19.6755 19.7786 19.0298C20.1503 18.398 20.3997 17.4856 20.3997 16.4458Z" fill="#3D4041"/>
<path d="M10.5753 12.9976C11.5765 12.9976 12.3345 12.2288 12.8068 11.3198C13.2944 10.3812 13.5782 9.12629 13.5783 7.77295H12.3781C12.378 8.97358 12.1242 10.0308 11.7423 10.7661C11.3449 11.5312 10.9013 11.7983 10.5753 11.7983V12.9976Z" fill="#3D4041"/>
<path d="M19.011 8.40039C19.0109 7.40082 18.7635 6.5244 18.3947 5.91797C18.0194 5.30096 17.5822 5.04883 17.2082 5.04883V3.84961C18.1614 3.84961 18.9258 4.482 19.4201 5.29492C19.921 6.1185 20.2111 7.21791 20.2112 8.40039C20.2112 9.58302 19.921 10.6832 19.4201 11.5068C18.9258 12.3196 18.1613 12.9521 17.2082 12.9521V11.752C17.5822 11.752 18.0194 11.5 18.3947 10.8828C18.7635 10.2763 19.011 9.40002 19.011 8.40039Z" fill="#3D4041"/>
<path d="M11.3722 16.4404C11.3722 15.3158 11.1321 14.3573 10.8029 13.7236C10.6387 13.4077 10.4744 13.2132 10.3468 13.1094C10.2308 13.0149 10.1738 13.0155 10.1691 13.0156C10.1676 13.0156 10.1109 13.0121 9.99136 13.1094C9.8638 13.2132 9.69852 13.4076 9.53433 13.7236C9.20518 14.3573 8.96603 15.3159 8.96597 16.4404C8.96597 17.5652 9.2051 18.5245 9.53433 19.1582C9.69852 19.4742 9.8638 19.6686 9.99136 19.7725C10.1108 19.8696 10.1676 19.8662 10.1691 19.8662V21.0664L10.0451 21.0605C8.85738 20.9446 7.89751 19.1685 7.77847 16.9141L7.76578 16.4404C7.76588 13.8861 8.84201 11.8154 10.1691 11.8154L10.2921 11.8213C11.5619 11.9448 12.5713 13.9657 12.5714 16.4404L12.5597 16.9141C12.4366 19.2461 11.4131 21.0661 10.1691 21.0664V19.8662C10.1738 19.8663 10.2308 19.8669 10.3468 19.7725C10.4744 19.6686 10.6387 19.4742 10.8029 19.1582C11.1321 18.5245 11.3722 17.5653 11.3722 16.4404Z" fill="#3D4041"/>
<path d="M18.5974 11.7554L18.5974 12.9546L5.40305 12.9546L5.40305 11.7554L18.5974 11.7554Z" fill="#3D4041"/>
<g filter="url(#filter0_dd_2292_16714)">
<path d="M15.1902 18.1675C15.1823 19.1634 14.9937 19.8728 14.7019 20.354C14.4179 20.8222 13.9895 21.1307 13.532 21.1226L13.5535 19.9233C13.4377 19.9213 13.5259 19.9803 13.6765 19.7319C13.8193 19.4965 13.9832 19.0222 13.99 18.1577L15.1902 18.1675Z" fill="#3D4041"/>
</g>
<g filter="url(#filter1_dd_2292_16714)">
<path d="M16.0696 11.7661C16.3828 11.937 16.8667 12.34 17.2776 12.9175C17.696 13.5057 18.0672 14.3151 18.0862 15.3003L17.4866 15.312L16.887 15.3228C16.8736 14.6349 16.6148 14.0553 16.3 13.6128C15.9775 13.1594 15.6247 12.8894 15.4954 12.8188L16.0696 11.7661Z" fill="#3D4041"/>
</g>
<path d="M17.3506 3.85742L17.3506 5.05664L7.35553 5.05664L7.35553 3.85742L17.3506 3.85742Z" fill="#3D4041"/>
<path d="M12.9959 4.93115C13.3007 4.39473 13.5366 3.72389 13.5515 2.94482L12.9519 2.93408L12.3523 2.92236C12.3418 3.46699 12.1772 3.94263 11.9529 4.3374L12.9959 4.93115Z" fill="#3D4041"/>
<path d="M4.92865 13.0366C4.58725 12.8751 4.26854 12.5755 4.0351 12.2378C3.79917 11.8965 3.60684 11.4529 3.5976 10.9722L4.1972 10.9614L4.79681 10.9497C4.80034 11.1308 4.87848 11.3482 5.02142 11.5552C5.16697 11.7657 5.33652 11.9026 5.44232 11.9526L4.92865 13.0366Z" fill="#3D4041"/>
<path d="M18.6547 19.9302L18.6547 21.1294L5.51892 21.1294L5.51892 19.9302L18.6547 19.9302Z" fill="#3D4041"/>
<path d="M8.55893 8.05713C8.55893 7.08897 8.32764 6.27041 8.01694 5.73584C7.68935 5.17247 7.41383 5.12273 7.3558 5.12256C7.29842 5.12256 7.02188 5.17135 6.6937 5.73584C6.38299 6.27041 6.15268 7.08897 6.15268 8.05713C6.15273 9.02515 6.38303 9.84293 6.6937 10.3774C7.02195 10.9422 7.29841 10.9917 7.3558 10.9917V12.1909L7.23178 12.186C6.04413 12.0824 5.08425 10.4951 4.96518 8.47998L4.95248 8.05713C4.95248 5.77374 6.02865 3.92236 7.3558 3.92236L7.47885 3.92822C8.74867 4.03872 9.75815 5.84493 9.75815 8.05713L9.74643 8.47998C9.62327 10.5644 8.59979 12.1907 7.3558 12.1909V10.9917C7.41384 10.9915 7.68928 10.9411 8.01694 10.3774C8.3276 9.84293 8.55888 9.02515 8.55893 8.05713Z" fill="#3D4041"/>
<path d="M15.4708 3.9165C15.784 4.08736 16.2679 4.49042 16.6788 5.06787C17.0972 5.65611 17.4684 6.46548 17.4874 7.45068L16.8878 7.4624L16.2881 7.47314C16.2748 6.78531 16.016 6.20565 15.7012 5.76318C15.3787 5.30982 15.0258 5.03977 14.8965 4.96924L15.4708 3.9165Z" fill="#3D4041"/>
</g>
<defs>
<filter id="filter0_dd_2292_16714" x="1.50034" y="10.1577" width="25.6898" height="26.9648" filterUnits="userSpaceOnUse" color-interpolation-filters="sRGB">
<feFlood flood-opacity="0" result="BackgroundImageFix"/>
<feColorMatrix in="SourceAlpha" type="matrix" values="0 0 0 0 0 0 0 0 0 0 0 0 0 0 0 0 0 0 127 0" result="hardAlpha"/>
<feOffset dy="4"/>
<feGaussianBlur stdDeviation="6"/>
<feColorMatrix type="matrix" values="0 0 0 0 0.0666667 0 0 0 0 0.2 0 0 0 0 0.32549 0 0 0 0.02 0"/>
<feBlend mode="normal" in2="BackgroundImageFix" result="effect1_dropShadow_2292_16714"/>
<feColorMatrix in="SourceAlpha" type="matrix" values="0 0 0 0 0 0 0 0 0 0 0 0 0 0 0 0 0 0 127 0" result="hardAlpha"/>
<feOffset dy="4"/>
<feGaussianBlur stdDeviation="6"/>
<feColorMatrix type="matrix" values="0 0 0 0 0.0666667 0 0 0 0 0.2 0 0 0 0 0.32549 0 0 0 0.02 0"/>
<feBlend mode="normal" in2="effect1_dropShadow_2292_16714" result="effect2_dropShadow_2292_16714"/>
<feBlend mode="normal" in="SourceGraphic" in2="effect2_dropShadow_2292_16714" result="shape"/>
</filter>
<filter id="filter1_dd_2292_16714" x="3.49536" y="3.76611" width="26.5908" height="27.5566" filterUnits="userSpaceOnUse" color-interpolation-filters="sRGB">
<feFlood flood-opacity="0" result="BackgroundImageFix"/>
<feColorMatrix in="SourceAlpha" type="matrix" values="0 0 0 0 0 0 0 0 0 0 0 0 0 0 0 0 0 0 127 0" result="hardAlpha"/>
<feOffset dy="4"/>
<feGaussianBlur stdDeviation="6"/>
<feColorMatrix type="matrix" values="0 0 0 0 0.0666667 0 0 0 0 0.2 0 0 0 0 0.32549 0 0 0 0.02 0"/>
<feBlend mode="normal" in2="BackgroundImageFix" result="effect1_dropShadow_2292_16714"/>
<feColorMatrix in="SourceAlpha" type="matrix" values="0 0 0 0 0 0 0 0 0 0 0 0 0 0 0 0 0 0 127 0" result="hardAlpha"/>
<feOffset dy="4"/>
<feGaussianBlur stdDeviation="6"/>
<feColorMatrix type="matrix" values="0 0 0 0 0.0666667 0 0 0 0 0.2 0 0 0 0 0.32549 0 0 0 0.02 0"/>
<feBlend mode="normal" in2="effect1_dropShadow_2292_16714" result="effect2_dropShadow_2292_16714"/>
<feBlend mode="normal" in="SourceGraphic" in2="effect2_dropShadow_2292_16714" result="shape"/>
</filter>
</defs>
</svg>
