<svg width="24" height="24" viewBox="0 0 24 24" fill="none" xmlns="http://www.w3.org/2000/svg">
<mask id="mask0_2292_16708" style="mask-type:alpha" maskUnits="userSpaceOnUse" x="0" y="0" width="24" height="24">
<path d="M0 0H24V24H0V0Z" fill="#D9D9D9"/>
</mask>
<g mask="url(#mask0_2292_16708)">
<path d="M7.6972 6.25124C8.72636 5.50111 10.1496 5.3314 11.9247 6.11354C12.7459 5.75956 13.8801 5.47562 14.9794 5.6946C15.6279 5.82376 16.2645 6.1294 16.7909 6.69167C17.3134 7.24981 17.6874 8.01791 17.8886 9.01003L17.1533 9.15944L16.4189 9.30788C16.2592 8.52098 15.9866 8.02732 15.6962 7.71706C15.4097 7.41099 15.0667 7.24104 14.6865 7.1653C13.888 7.00626 12.9394 7.26808 12.2636 7.60963L11.9286 7.77858L11.5927 7.61159C10.0244 6.83417 9.1096 7.07795 8.58099 7.46315C7.98511 7.89747 7.66132 8.66745 7.59173 9.24831L6.84661 9.15944L6.10149 9.0696C6.20515 8.20481 6.67187 6.99863 7.6972 6.25124Z" fill="#3D4041"/>
<path d="M8.25661 10.3306H9.77306V11.9683H8.42109L8.25661 10.3306Z" fill="#3D4041"/>
<path d="M15.7261 10.3306H14.2096V11.9683H15.5616L15.7261 10.3306Z" fill="#3D4041"/>
<path d="M6.91089 9.69189C6.02867 9.95481 4.75419 10.6391 4.01439 12.0141C5.13037 12.5195 5.94791 12.3002 6.35033 11.9841L7.27803 13.163C6.19303 14.0162 4.44942 14.1109 2.64545 12.9779L2.12847 12.6535L2.34054 12.0822L2.42629 11.8639C3.34095 9.64984 5.24746 8.6228 6.48205 8.25476L6.91089 9.69189Z" fill="#3D4041"/>
<path d="M16.9898 9.66308C17.8679 9.90091 19.2161 10.5839 19.9857 12.0142C18.8694 12.5198 18.0517 12.2996 17.6494 11.9833L16.7217 13.1623C17.8067 14.0154 19.5507 14.111 21.3546 12.9781L21.8716 12.6537L21.6595 12.0824C20.7527 9.63426 18.6528 8.56042 17.382 8.21615L16.9898 9.66308Z" fill="#3D4041"/>
<path d="M4.38042 2.05029C8.95134 2.2342 11.1663 4.9444 11.7154 6.49756L10.3013 6.99756C10.0145 6.18626 8.8265 4.49292 6.23198 3.82275C6.30174 3.90883 6.37204 3.99637 6.43999 4.0874C7.17252 5.06885 7.82364 6.38506 7.97905 7.9585L7.23198 8.03271L6.48589 8.10596C6.363 6.86178 5.84549 5.79899 5.23784 4.98486C4.62077 4.15815 3.94996 3.63939 3.59331 3.46143L3.9312 2.04053L4.38042 2.05029Z" fill="#3D4041"/>
<path d="M19.4432 2.05029C14.8723 2.2342 12.6574 4.9444 12.1083 6.49756L13.5223 6.99756C13.8091 6.18626 14.9971 4.49292 17.5917 3.82275C17.5219 3.90883 17.4516 3.99637 17.3837 4.0874C16.6511 5.06885 16 6.38506 15.8446 7.9585L16.5917 8.03271L17.3378 8.10596C17.4607 6.86178 17.9782 5.79899 18.5858 4.98486C19.2029 4.15815 19.8737 3.63939 20.2303 3.46143L19.8924 2.04053L19.4432 2.05029Z" fill="#3D4041"/>
<path d="M7.58509 8.50488V14.3721C7.99306 14.7267 8.25298 15.2249 8.44642 15.6631C8.58132 15.9687 8.70699 16.3032 8.82923 16.6299C8.95402 16.9634 9.07727 17.2954 9.21693 17.627C9.76347 18.9244 10.484 20.0385 11.9943 20.4541C13.5047 20.0386 14.225 18.9244 14.7716 17.627C14.9113 17.2953 15.0355 16.9635 15.1603 16.6299C15.2826 16.3031 15.4082 15.9688 15.5431 15.6631C15.7365 15.2249 15.9956 14.7267 16.4035 14.3721V8.50488H17.9035V15.2344L17.4826 15.4395C17.347 15.5056 17.1613 15.7109 16.9152 16.2686C16.8006 16.528 16.6895 16.8214 16.5646 17.1553C16.4422 17.4824 16.3081 17.8442 16.1544 18.209C15.5386 19.671 14.5397 21.3667 12.2667 21.9365L12.1769 21.959H11.8117L11.7228 21.9365C9.44953 21.3668 8.45099 19.6711 7.83509 18.209C7.6814 17.8441 7.5464 17.4825 7.42396 17.1553C7.29902 16.8214 7.18791 16.528 7.07337 16.2686C6.82725 15.711 6.64157 15.5056 6.50599 15.4395L6.08509 15.2344V8.50488H7.58509Z" fill="#3D4041"/>
<path d="M10.5216 17.0124L10.5216 16.7595H13.4787L13.4787 17.0124C13.4787 17.3395 13.0951 17.6226 12.0001 17.6226C10.8037 17.6226 10.5159 17.2158 10.5216 17.0124Z" fill="#3D4041"/>
<path d="M11.5276 16.9663H12.4715V19.1294H11.5276V16.9663Z" fill="#3D4041"/>
</g>
</svg>
