<svg width="24" height="24" viewBox="0 0 24 24" fill="none" xmlns="http://www.w3.org/2000/svg">
<mask id="mask0_2292_16711" style="mask-type:alpha" maskUnits="userSpaceOnUse" x="0" y="0" width="24" height="24">
<path d="M0 0H24V24H0V0Z" fill="#D9D9D9"/>
</mask>
<g mask="url(#mask0_2292_16711)">
<path d="M7.12813 19.5V21H5.13399V19.5H7.12813ZM7.62813 19V13.165C7.62813 12.8889 7.40427 12.665 7.12813 12.665H5.13399C4.85785 12.665 4.63399 12.8889 4.63399 13.165V19C4.6341 19.2761 4.85791 19.5 5.13399 19.5V21L4.92989 20.9893C3.98839 20.8938 3.24027 20.1456 3.14473 19.2041L3.13399 19V13.165C3.13399 12.1294 3.92121 11.278 4.92989 11.1758L5.13399 11.165H7.12813L7.33321 11.1758C8.3416 11.2783 9.12813 12.1296 9.12813 13.165V19L9.11836 19.2041C9.02286 20.1454 8.27444 20.8936 7.33321 20.9893L7.12813 21V19.5C7.4042 19.5 7.62802 19.2761 7.62813 19Z" fill="#3D4041"/>
<path d="M18.866 19.4998V20.9998H16.9002V19.4998H18.866ZM19.366 18.9998V13.165C19.366 12.8889 19.1422 12.665 18.866 12.665H16.9002C16.6241 12.665 16.4002 12.8889 16.4002 13.165V18.9998C16.4003 19.2759 16.6241 19.4998 16.9002 19.4998V20.9998L16.6961 20.9891C15.7546 20.8936 15.0065 20.1454 14.911 19.2039L14.9002 18.9998V13.165C14.9002 12.1294 15.6874 11.278 16.6961 11.1758L16.9002 11.165H18.866L19.0701 11.1758C20.0788 11.278 20.866 12.1294 20.866 13.165V18.9998L20.8553 19.2039C20.7598 20.1454 20.0116 20.8936 19.0701 20.9891L18.866 20.9998V19.4998C19.1421 19.4998 19.3659 19.2759 19.366 18.9998Z" fill="#3D4041"/>
<path d="M16.2129 9.22998V17.4663H7.8203V9.22998H16.2129ZM9.3203 15.9663H14.7129V10.73H9.3203V15.9663Z" fill="#3D4041"/>
<path d="M5.64531 13.3667L5.64531 14.5659L4.45586 14.5659L4.45586 13.3667L5.64531 13.3667Z" fill="#3D4041"/>
<path d="M7.80241 15.5566L7.80241 16.7559L6.61296 16.7559L6.61296 15.5566L7.80241 15.5566Z" fill="#3D4041"/>
<path d="M16.5264 4.05615L16.5264 5.55615L7.53423 5.55615L7.53423 4.05615L16.5264 4.05615Z" fill="#3D4041"/>
<path d="M5.64523 17.7827L5.64523 18.7827L4.47238 18.7827L4.47238 17.7827L5.64523 17.7827Z" fill="#3D4041"/>
<path d="M5.64523 17.6831L5.64523 18.8823L4.47238 18.8823L4.47238 17.6831L5.64523 17.6831Z" fill="#3D4041"/>
<path d="M17.3564 13.3667L17.3564 14.5659L16.167 14.5659L16.167 13.3667L17.3564 13.3667Z" fill="#3D4041"/>
<path d="M19.5267 15.5566L19.5267 16.7559L18.3373 16.7559L18.3373 15.5566L19.5267 15.5566Z" fill="#3D4041"/>
<path d="M17.4122 17.6831L17.4122 18.8823L16.2393 18.8823L16.2393 17.6831L17.4122 17.6831Z" fill="#3D4041"/>
<path d="M9.31871 4.80615V9.79053H8.11949V4.80615H9.31871Z" fill="#3D4041"/>
<path d="M15.9181 4.80615V9.79053H14.7189V4.80615H15.9181Z" fill="#3D4041"/>
<path d="M11.0797 11.7719C11.0797 12.1388 10.7822 12.4363 10.4153 12.4363C10.0483 12.4363 9.75082 12.1388 9.75082 11.7719C9.75082 11.4049 10.0483 11.1074 10.4153 11.1074C10.7822 11.1074 11.0797 11.4049 11.0797 11.7719Z" fill="#3D4041"/>
<path d="M14.2563 11.7719C14.2563 12.1388 13.9588 12.4363 13.5918 12.4363C13.2249 12.4363 12.9274 12.1388 12.9274 11.7719C12.9274 11.4049 13.2249 11.1074 13.5918 11.1074C13.9588 11.1074 14.2563 11.4049 14.2563 11.7719Z" fill="#3D4041"/>
<path d="M8.03824 3.98438C8.03824 3.76875 7.98799 3.70677 7.97379 3.69238C7.95973 3.67823 7.87148 3.59961 7.54507 3.59961V2.40039C8.04237 2.40039 8.50153 2.51875 8.82828 2.84961C9.15405 3.17976 9.23843 3.6101 9.23843 3.98438V4.85059H8.03824V3.98438Z" fill="#3D4041"/>
</g>
</svg>
