<svg width="24" height="24" viewBox="0 0 24 24" fill="none" xmlns="http://www.w3.org/2000/svg">
<mask id="mask0_2292_16706" style="mask-type:alpha" maskUnits="userSpaceOnUse" x="0" y="0" width="24" height="24">
<path d="M0 0H24V24H0V0Z" fill="#D9D9D9"/>
</mask>
<g mask="url(#mask0_2292_16706)">
<path d="M10.9287 8.25571C11.2589 8.43915 11.6395 8.54477 12.0497 8.54477V10.0447C11.3782 10.0447 10.7475 9.87129 10.2001 9.5672C9.72961 9.90183 9.15482 10.1014 8.5322 10.1014V8.6014C8.82854 8.6014 9.10213 8.50735 9.33102 8.34457L10.1015 7.79674L10.9287 8.25571ZM14.9364 8.31235C15.1721 8.49486 15.4633 8.6014 15.7811 8.6014V10.1014C15.1163 10.1014 14.5053 9.87483 14.0185 9.49787C13.4443 9.84471 12.7706 10.0447 12.0497 10.0447V8.54477C12.4895 8.54475 12.8962 8.42325 13.2431 8.21372L14.123 7.68248L14.9364 8.31235ZM17.1542 7.24402C17.1541 6.54933 16.621 5.96479 15.9227 5.89444L15.7811 5.88761C15.7301 5.88761 15.6646 5.89243 15.577 5.90519L14.5614 6.05362L14.0556 5.15911C13.6858 4.50525 13.0038 4.05216 12.2099 3.99801L12.0497 3.99215C11.1928 3.99215 10.447 4.45581 10.0507 5.14544L9.58004 5.96475L8.63864 5.89444C8.60075 5.89162 8.57837 5.88969 8.55856 5.88858C8.54986 5.8881 8.54348 5.88775 8.53903 5.88761H8.5322C7.81378 5.88763 7.23566 6.42821 7.166 7.10633L7.15916 7.24402C7.15916 7.98576 7.76624 8.60138 8.5322 8.6014V10.1014C6.94546 10.1013 5.65918 8.82178 5.65918 7.24402C5.65928 5.66634 6.94552 4.38767 8.5322 4.38765C8.60552 4.38765 8.67803 4.39302 8.74997 4.39839C9.40406 3.2598 10.6366 2.49219 12.0497 2.49219C13.472 2.49221 14.7105 3.27014 15.3612 4.42085C15.4984 4.40087 15.6384 4.38765 15.7811 4.38765C17.3677 4.38776 18.6541 5.6664 18.6542 7.24402C18.6542 8.82172 17.3678 10.1012 15.7811 10.1014V8.6014C16.5471 8.60129 17.1542 7.98558 17.1542 7.24402Z" fill="#3D4041"/>
<path d="M17.8036 8.54492C18.1759 10.1499 18.3791 12.6695 17.7264 15.1367C17.0671 17.6287 15.5214 20.0964 12.3983 21.4463L12.2557 21.5078H11.8475L11.7049 21.4463C8.58658 20.0983 7.0052 17.6356 6.30846 15.1465C5.61839 12.681 5.78261 10.1592 6.15709 8.54492L7.61901 8.88477C7.28981 10.3041 7.14419 12.5645 7.75377 14.7422C8.33735 16.827 9.59979 18.8068 12.0516 19.957C14.497 18.8089 15.7255 16.8348 16.2762 14.7529C16.8519 12.5769 16.674 10.3135 16.3426 8.88477L17.8036 8.54492Z" fill="#3D4041"/>
<path d="M10.4936 17.1203L10.4936 16.8674H13.4506L13.4506 17.1203C13.4506 17.4474 13.067 17.7305 11.9721 17.7305C10.7756 17.7305 10.4879 17.3237 10.4936 17.1203Z" fill="#3D4041"/>
<path d="M8.09833 11.2559H9.61478V12.8936H8.26281L8.09833 11.2559Z" fill="#3D4041"/>
<path d="M15.8578 11.2559H14.3414V12.8936H15.6933L15.8578 11.2559Z" fill="#3D4041"/>
<path d="M11.4996 17.0745H12.4435V19.2376H11.4996V17.0745Z" fill="#3D4041"/>
<path d="M7.48823 9.98145C7.18179 10.0011 6.44419 10.18 5.67124 10.6661C5.05568 11.0533 4.44327 11.6185 4.0125 12.4204C5.1298 12.927 5.94814 12.7065 6.35062 12.3901L7.27798 13.5699C6.26073 14.3697 4.66428 14.5033 2.98227 13.5832L2.64541 13.3849L2.12843 13.0605L2.3405 12.4891C2.89345 10.9964 3.89548 10.0112 4.87192 9.39696C5.83197 8.79312 6.80825 8.52146 7.39166 8.48401L7.48823 9.98145Z" fill="#3D4041"/>
<path d="M16.5118 9.98145C16.8182 10.0011 17.5558 10.18 18.3288 10.6661C18.9443 11.0533 19.5567 11.6185 19.9875 12.4204C18.8702 12.927 18.0519 12.7065 17.6494 12.3901L16.722 13.5699C17.7393 14.3697 19.3357 14.5033 21.0177 13.5832L21.3546 13.3849L21.8716 13.0605L21.6595 12.4891C21.1065 10.9964 20.1045 10.0112 19.1281 9.39696C18.168 8.79312 17.1918 8.52146 16.6083 8.48401L16.5118 9.98145Z" fill="#3D4041"/>
</g>
</svg>
